<svg xmlns="http://www.w3.org/2000/svg" viewBox="0 0 1440 320"><path fill="#fff" fill-opacity="1" d="M0,160L24,149.3C48,139,96,117,144,128C192,139,240,181,288,170.7C336,160,384,96,432,90.7C480,85,528,139,576,138.7C624,139,672,85,720,90.7C768,96,816,160,864,160C912,160,960,96,1008,64C1056,32,1104,32,1152,37.3C1200,43,1248,53,1296,64C1344,75,1392,85,1416,90.7L1440,96L1440,0L1416,0C1392,0,1344,0,1296,0C1248,0,1200,0,1152,0C1104,0,1056,0,1008,0C960,0,912,0,864,0C816,0,768,0,720,0C672,0,624,0,576,0C528,0,480,0,432,0C384,0,336,0,288,0C240,0,192,0,144,0C96,0,48,0,24,0L0,0Z"></path></svg>